<svg class="svg-icon" style="width: 0.5em; height: 0.5em;vertical-align: middle;fill: currentColor;overflow: hidden;" viewBox="0 0 1024 1024" version="1.1" xmlns="http://www.w3.org/2000/svg"><path d="M895.888014 960.007999v-191.976003a64.887889 64.887889 0 0 0-63.992001-63.992001h-63.992001a63.992001 63.992001 0 0 1 0-127.984002h63.992001a192.551931 192.551931 0 0 1 191.976003 191.976003v191.976003a63.992001 63.992001 0 1 1-127.984002 0z m-383.952006 0v-191.976003a64.887889 64.887889 0 0 0-63.992001-63.992001H191.976003a64.887889 64.887889 0 0 0-63.992001 63.992001v191.976003a63.992001 63.992001 0 1 1-127.984002 0v-191.976003a192.551931 192.551931 0 0 1 191.976003-191.976003h255.968004a192.551931 192.551931 0 0 1 191.976003 191.976003v191.976003a63.992001 63.992001 0 1 1-127.984002 0z m127.984002-511.936008a63.992001 63.992001 0 0 1 63.992001-63.992001 127.984002 127.984002 0 1 0 0-255.968004 63.992001 63.992001 0 1 1 0-127.984002 255.968004 255.968004 0 1 1 0 511.936008 63.992001 63.992001 0 0 1-63.992001-63.992001z m-575.928009-191.976003a255.968004 255.968004 0 1 1 255.968004 255.968004 255.968004 255.968004 0 0 1-255.968004-255.968004z m127.984002 0a127.984002 127.984002 0 1 0 127.984002-127.984002 127.984002 127.984002 0 0 0-127.984002 127.984002z" fill="#344054" /></svg>